<svg xmlns="http://www.w3.org/2000/svg" xmlns:xlink="http://www.w3.org/1999/xlink" viewBox="0 0 110 137"><defs><style>.cls-1{fill:#fff;}.cls-2{fill:url(#linear-gradient);}.cls-3{fill:url(#linear-gradient-2);}.cls-4,.cls-5{fill:none;stroke-linecap:round;stroke-miterlimit:10;stroke-width:4px;}.cls-4{stroke:#ffa49f;}.cls-5{stroke:#fff;}.cls-6{fill:#f9b9a9;}.cls-7{fill:#f9d1c7;}</style><linearGradient id="linear-gradient" x1="20.63" y1="125.85" x2="89.35" y2="11.47" gradientUnits="userSpaceOnUse"><stop offset="0" stop-color="#ff78b2"/><stop offset="1" stop-color="#ffd589"/></linearGradient><linearGradient id="linear-gradient-2" x1="46.46" y1="122.54" x2="85.46" y2="-6.44" xlink:href="#linear-gradient"/><symbol id="Logo" data-name="Logo" viewBox="0 0 110.02 137.33"><path class="cls-1" d="M29,128.58a54.82,54.82,0,0,0,55,0,55.46,55.46,0,0,1-21.64-22.92,56.79,56.79,0,0,1-5.85-25.8V60.94c0-6.61.1-13.14-1.39-19.64A55.09,55.09,0,0,0,39.34,13.74c-1.91-1.82-4-1.49-6.1-3-1.1-.78-2.23-1.51-3.38-2.21C29.64,8.38,29.22,8,29,8s-.76.45-1,.58c-.81.49-1.61,1-2.39,1.54-5.31,3.61-10,6.16-13.77,11.39A55.6,55.6,0,0,0,1.5,53.84c0,5.73,0,11.46,0,17.19,0,6.33-.29,12.75.75,19A55.22,55.22,0,0,0,21,122.94,56.61,56.61,0,0,0,29,128.58Z"/><path class="cls-2" d="M55,3a52,52,0,0,1,52,52V82.34a52,52,0,0,1-104,0V55A52,52,0,0,1,55,3m0-3A55,55,0,0,0,0,55V82.34a55,55,0,0,0,110,0V55A55,55,0,0,0,55,0Z"/><path class="cls-3" d="M82.49,7.38a54.79,54.79,0,0,0-55,0A55.44,55.44,0,0,1,49.14,30.29,56.83,56.83,0,0,1,55,56.1V75c0,6.61-.1,13.14,1.38,19.65a55,55,0,0,0,21.87,32.57c1.1.78,2.22,1.52,3.38,2.21.21.13.63.52.87.52s.76-.45,1-.58c.81-.5,1.6-1,2.39-1.54a54.8,54.8,0,0,0,13.77-13.4A55.74,55.74,0,0,0,110,82.11c0-5.73,0-11.46,0-17.19,0-6.33.28-12.74-.75-19A55.08,55.08,0,0,0,82.49,7.38Z"/><path class="cls-4" d="M47.11,52.43a17.84,17.84,0,0,1-35.67,0"/><circle class="cls-5" cx="80.7" cy="52.43" r="17.83"/><circle class="cls-1" cx="80.7" cy="52.43" r="11.38"/><polygon class="cls-6" points="54.99 67.02 65.01 72.82 54.99 82.84 44.97 72.82 54.99 67.02"/><polygon class="cls-7" points="54.99 67.02 54.99 82.84 65.01 72.82 54.99 67.02"/></symbol></defs><title>Asset 17</title><g id="Layer_2" data-name="Layer 2"><g id="Home"><use width="110.01" height="137.33" xlink:href="#Logo"/></g></g></svg>